<svg width="168" height="193" viewBox="0 0 168 193" fill="none" xmlns="http://www.w3.org/2000/svg">
<path fill-rule="evenodd" clip-rule="evenodd" d="M163.619 48.2847L164 48.5L164.116 59.6175C163.559 59.2563 162.942 59.0429 162.28 59.0745C157.288 59.3126 150.156 62.4078 149.324 63.9555C148.136 66.1659 148.035 68.2313 149.324 70.384C150.037 71.5745 156.812 75.6273 157.882 75.8602C160.556 76.4425 163.617 74.5423 164.261 73.4331L164.353 82.1689C164.303 82.1674 164.253 82.1667 164.203 82.1667C159.33 82.1667 159.924 89.1905 164.203 89.1905C164.278 89.1905 164.353 89.1883 164.426 89.184L164.526 98.7344C164.269 98.1746 164.054 97.768 163.919 97.605C162.134 95.4477 158.433 95.0831 157.327 95.608C154.926 96.7479 150.17 100.124 149.657 100.78C148.924 101.717 147.788 106.444 150.121 108.101C154.197 110.998 161.717 112.967 163.325 112.262C163.813 112.049 164.258 111.81 164.66 111.542L164.78 123H161.826L160.994 119.667L156.477 117.881L153.149 121.69L149.108 119.667L149.702 116.333L145.78 113.238L141.501 115.738L138.292 113L139.956 109.31L136.746 105.143L133.181 106.333L130.566 102.881L133.537 99.4286L131.517 94.4286L127.713 94.1905L127 89.6667L130.209 88.3571L130.566 82.881L127 81.2143L127.475 76.8095L131.517 76.5714L133.418 71.4524L130.566 68.8333L132.943 64.6667L136.628 65.7381L140.312 62.0476L138.648 58.5952L142.214 55.5C143.165 56.3333 145.138 57.9524 145.423 57.7619C145.601 57.6429 146.612 57.1369 147.592 56.6458C148.573 56.1548 149.524 55.6786 149.583 55.619C149.678 55.5238 149.544 52.4841 149.464 50.9762L153.506 49.4286L155.883 52.881L160.994 52.1667L161.707 48.4762L163.619 48.2847ZM138.602 79.1408C137.134 83.9257 137.625 91.6948 138.797 93.0033C140.47 94.8721 142.376 95.6674 144.835 95.1817C146.195 94.9131 152.298 89.9023 152.879 88.9732C154.365 86.5988 153.55 82.965 152.706 82.0778C150.872 80.1509 146.18 76.6868 145.397 76.4044C144.279 76.001 139.442 76.4024 138.602 79.1408Z" fill="#562400"/>
<path fill-rule="evenodd" clip-rule="evenodd" d="M126.847 27.5004L116.18 21.471C116.287 21.9595 116.371 22.4681 116.433 22.9966C116.775 25.906 109.998 36.9633 103.413 42.0712C99.6435 44.9945 92.6684 40.8911 91.5314 39.2664C90.7355 38.129 87.6627 28.8983 87.0109 24.5099C86.7108 22.4894 89.0835 16.7552 93.383 14.9484C94.3084 14.5595 98.6935 14.094 102.803 13.9106L83.5 3L80.1528 4.88023C81.8227 8.34781 79.8047 13.6508 75.0048 13.6508C72.6101 13.6508 70.9078 12.3309 70.0105 10.5774L20.4282 38.4292L23.3011 42.2222L29.2441 40.2381L34.5927 47.1825L31.8193 53.3333L37.168 57.8968L44.2995 53.7302L50.8368 58.8889L49.8463 64.4444L56.5816 67.8175L62.1284 61.4683L69.6561 64.4444L71.0428 70H79.3629L80.5515 63.8492L89.2678 62.8571L92.4374 67.8175L100.361 64.4444L99.3708 57.6984L105.908 54.127C108.153 55.3836 112.643 57.9762 112.643 58.2937C112.643 58.6111 116.341 55.119 118.19 53.3333L115.417 46.7857L119.973 40.8333L126.312 42.619L130.868 35.0794L125.718 29.5238L126.847 27.5004ZM73.5412 52.104C70.8613 53.2777 58.3287 49.996 51.5351 45.1687C47.6471 42.406 49.5403 34.5289 50.7621 32.9671C51.6174 31.8738 59.5429 26.2466 63.5458 24.3467C65.3889 23.4719 71.5564 24.0796 74.5319 27.675C75.6963 29.082 80.4251 41.3742 80.1389 43.6702C79.6213 47.8222 77.3688 50.4276 73.5412 52.104Z" fill="#562400"/>
<path fill-rule="evenodd" clip-rule="evenodd" d="M125.333 166.145L125.848 163.222L135 157.667L132.227 148.778L122.242 147.111L118.637 137.111L125.293 128.5L118.637 120.722L110.04 122.667L103.661 113.222L106.989 105.167L98.6688 98.7778L90.0713 104.333L81.1965 97.9444L82.3059 89.6111L71.767 85.1667L64.8336 93.5L54.2948 89.6111L52.0761 81L40.9826 82.1111L39.3185 90.7222L27.393 92.3889L21.8463 84.3333L12.4168 87.9444C12.6017 91.463 12.916 98.5556 12.6941 98.7778C12.5555 98.9167 10.3368 100.028 8.04885 101.174C5.76082 102.319 3.40333 103.5 2.98732 103.778C2.89501 103.839 2.72694 103.82 2.5 103.735V144L39.5966 164.838C40.7311 162.477 43.0859 160.722 46.8066 160.722C54.3623 160.722 56.2851 167.958 53.7957 172.814L68.9298 181.316C69.9907 180.326 71.1967 179.491 72.5362 178.928C74.8916 177.938 93.2558 176.594 96.2102 177.912C97.6859 178.57 98.9499 179.358 100.021 180.277L125.333 166.145ZM104.491 146.235C100.988 135.095 89.7756 120.818 85.7946 119.858C80.1087 118.486 75.3956 119.485 71.3125 123.679C69.0545 125.998 63.9516 143.718 64.0627 146.274C64.3468 152.806 70.7149 158.708 73.5098 159.293C79.5801 160.564 93.174 160.999 95.0513 160.504C97.7332 159.796 106.496 152.611 104.491 146.235ZM12.0899 118.229C14.0312 114.618 30.6715 107.396 42.3197 106.841C48.986 106.523 53.6905 116.841 53.6905 119.618C53.6905 121.563 49.8078 134.618 47.0344 140.174C45.7574 142.732 38.4369 147.396 32.0582 146.007C29.5621 145.464 13.7539 136.007 12.0899 133.229C9.0808 128.206 9.31706 123.387 12.0899 118.229Z" fill="#562400"/>
<path d="M26.5 129.5L83.5 27.5M26.5 129.5H140M26.5 129.5L2.5 48.5M26.5 129.5L2.5 144M26.5 129.5L83.5 189.5M83.5 27.5L140 129.5M83.5 27.5V3M83.5 27.5L164 48.5M83.5 27.5L2.5 48.5M140 129.5L164 48.5M140 129.5L165 144M140 129.5L83.5 189.5M83.5 3L164 48.5M83.5 3L2.5 48.5M164 48.5L165 144M165 144L83.5 189.5M2.5 48.5V144M2.5 144L83.5 189.5" stroke="#FF3D00" stroke-width="5"/>
</svg>
